<svg width="20" height="20" viewBox="0 0 20 20" fill="none" xmlns="http://www.w3.org/2000/svg">
<path fill-rule="evenodd" clip-rule="evenodd" d="M12.5025 3.33325C13.1225 3.33325 13.7775 3.54992 14.3775 3.78909L14.8167 3.96909C15.8667 4.40909 16.4567 5.33242 16.9142 6.34659C17.6567 7.99242 18.1725 10.1866 18.3508 11.8549C18.4358 12.6466 18.4567 13.4433 18.3042 13.9791C18.14 14.5516 17.5817 14.9566 17.0392 15.2749L16.7708 15.4274L16.4925 15.5824C16.3492 15.6624 16.2017 15.7416 16.055 15.8191L15.62 16.0441L15.0225 16.3416L14.5417 16.5783C14.4434 16.6312 14.3356 16.6639 14.2245 16.6744C14.1133 16.6849 14.0013 16.673 13.8949 16.6393C13.7884 16.6057 13.6899 16.551 13.605 16.4785C13.5201 16.406 13.4507 16.3173 13.4008 16.2174C13.3509 16.1176 13.3215 16.0088 13.3145 15.8974C13.3074 15.786 13.3228 15.6744 13.3597 15.5691C13.3967 15.4637 13.4544 15.3669 13.5294 15.2843C13.6045 15.2017 13.6954 15.1351 13.7967 15.0883L14.455 14.7633L13.9717 14.2558C12.8133 14.7308 11.4492 14.9999 10 14.9999C8.55083 14.9999 7.18667 14.7316 6.02833 14.2558L5.545 14.7624L6.20583 15.0874C6.30378 15.1363 6.39113 15.2041 6.4629 15.2867C6.53466 15.3694 6.58945 15.4654 6.62411 15.5693C6.65878 15.6731 6.67265 15.7828 6.66494 15.892C6.65723 16.0012 6.62808 16.1078 6.57917 16.2058C6.53025 16.3037 6.46252 16.391 6.37984 16.4628C6.29717 16.5346 6.20117 16.5894 6.09732 16.624C5.88759 16.694 5.65864 16.6779 5.46083 16.5791L5.0075 16.3541C4.6725 16.1874 4.33667 16.0224 4.005 15.8483L3.23167 15.4274L2.96417 15.2749C2.42167 14.9566 1.8625 14.5516 1.69917 13.9791C1.54583 13.4433 1.5675 12.6474 1.65167 11.8541C1.83 10.1866 2.34583 7.99242 3.08833 6.34659C3.54583 5.33242 4.13583 4.40909 5.18583 3.96909C5.8825 3.67742 6.72667 3.33325 7.5 3.33325C8.0025 3.33325 8.3975 3.79575 8.325 4.28909C8.87955 4.20703 9.43941 4.16609 10 4.16659C10.5758 4.16659 11.1383 4.20825 11.6783 4.28992C11.6623 4.17158 11.6715 4.05117 11.7055 3.93668C11.7395 3.82218 11.7974 3.7162 11.8754 3.62576C11.9533 3.53532 12.0497 3.46247 12.1579 3.41205C12.2662 3.36162 12.3831 3.33476 12.5025 3.33325ZM7.29167 8.74992C6.90489 8.74992 6.53396 8.90356 6.26047 9.17705C5.98698 9.45055 5.83333 9.82148 5.83333 10.2083C5.83333 10.595 5.98698 10.966 6.26047 11.2394C6.53396 11.5129 6.90489 11.6666 7.29167 11.6666C7.67844 11.6666 8.04937 11.5129 8.32286 11.2394C8.59635 10.966 8.75 10.595 8.75 10.2083C8.75 9.82148 8.59635 9.45055 8.32286 9.17705C8.04937 8.90356 7.67844 8.74992 7.29167 8.74992ZM12.7083 8.74992C12.3216 8.74992 11.9506 8.90356 11.6771 9.17705C11.4036 9.45055 11.25 9.82148 11.25 10.2083C11.25 10.595 11.4036 10.966 11.6771 11.2394C11.9506 11.5129 12.3216 11.6666 12.7083 11.6666C13.0951 11.6666 13.466 11.5129 13.7395 11.2394C14.013 10.966 14.1667 10.595 14.1667 10.2083C14.1667 9.82148 14.013 9.45055 13.7395 9.17705C13.466 8.90356 13.0951 8.74992 12.7083 8.74992Z" fill="#586AEA"/>
</svg>
