<svg width="21" height="20" viewBox="0 0 21 20" fill="none" xmlns="http://www.w3.org/2000/svg">
<path d="M19.3 10.2083C19.3 9.55825 19.2417 8.93325 19.1333 8.33325H10.5V11.8833H15.4333C15.2167 13.0249 14.5667 13.9916 13.5917 14.6416V16.9499H16.5667C18.3 15.3499 19.3 12.9999 19.3 10.2083Z" fill="#4285F4"/>
<path d="M10.5 19.1667C12.975 19.1667 15.05 18.35 16.5667 16.95L13.5917 14.6417C12.775 15.1917 11.7333 15.525 10.5 15.525C8.11667 15.525 6.09167 13.9167 5.36667 11.75H2.31667V14.1167C3.825 17.1083 6.91667 19.1667 10.5 19.1667Z" fill="#34A853"/>
<path d="M5.36667 11.7416C5.18333 11.1916 5.075 10.6083 5.075 9.99993C5.075 9.3916 5.18333 8.80827 5.36667 8.25827V5.8916H2.31667C1.69167 7.12493 1.33333 8.5166 1.33333 9.99993C1.33333 11.4833 1.69167 12.8749 2.31667 14.1083L4.69167 12.2583L5.36667 11.7416Z" fill="#FBBC05"/>
<path d="M10.5 4.48325C11.85 4.48325 13.05 4.94992 14.0083 5.84992L16.6333 3.22492C15.0417 1.74159 12.975 0.833252 10.5 0.833252C6.91667 0.833252 3.825 2.89159 2.31667 5.89159L5.36667 8.25825C6.09167 6.09159 8.11667 4.48325 10.5 4.48325Z" fill="#EA4335"/>
</svg>
