<svg width="18" height="18" viewBox="0 0 18 18" fill="none" xmlns="http://www.w3.org/2000/svg">
<path d="M6.89303 11.8574C7.07609 12.0411 7.55351 12.5629 7.74873 12.6494C7.81036 12.6767 7.88306 12.678 7.94954 12.6778C8.01712 12.6776 8.09274 12.6746 8.15317 12.6418C8.36091 12.5289 8.69725 12.1523 8.87359 11.9757L9.8045 11.0454C9.82794 11.0221 9.90641 10.934 9.93999 10.9461L12.6645 15.517L13.3489 16.661C13.462 16.8496 13.5999 17.0425 13.6853 17.2445C13.7336 17.3588 13.738 17.5224 13.708 17.6416C13.6784 17.759 13.614 17.8472 13.5091 17.909C13.4503 17.9435 13.3822 17.964 13.3255 18H0.412718C0.380926 17.978 0.340201 17.9648 0.305729 17.9467C0.163042 17.8715 0.0813761 17.7793 0.0238342 17.6297C0.0287471 17.6203 0.0342808 17.6107 0.0351492 17.5999C0.037917 17.5652 0.0290158 17.5214 0.0293972 17.485C0.0301048 17.4175 0.0408318 17.3523 0.0367199 17.2849C0.112838 17.0672 0.309491 16.7947 0.434641 16.593C0.594739 16.3349 0.748186 16.0722 0.904438 15.8118L2.90203 12.4947L3.55406 11.4071C3.64392 11.2555 3.74236 11.1094 3.8242 10.9533C3.82969 10.9429 3.82814 10.9462 3.83872 10.9365C3.91923 10.9647 4.06277 11.136 4.12996 11.2034L5.0077 12.0829C5.1581 12.2334 5.30474 12.3981 5.46663 12.5356C5.52338 12.5838 5.59049 12.6303 5.65908 12.6598C5.74644 12.6974 5.95077 12.6842 6.03574 12.6439C6.30142 12.5179 6.63924 12.0569 6.89303 11.8574Z" fill="#667F99"/>
<path d="M6.77103 0H12.2704C12.32 0.0199583 12.3707 0.0426621 12.4176 0.068284C12.5242 0.1266 12.6174 0.221278 12.6501 0.34097C12.68 0.450215 12.6812 0.608267 12.6496 0.717431C12.6175 0.82831 12.5566 0.933311 12.5047 1.03596L12.3002 1.44263L11.9264 2.19092C11.8523 2.33874 11.7815 2.49014 11.6981 2.63303C11.7623 2.79248 11.8535 2.94958 11.9305 3.10361L12.4078 4.05675C12.4821 4.20515 12.5697 4.35671 12.6278 4.51189C12.6508 4.57331 12.6683 4.63891 12.6701 4.70465C12.6745 4.86528 12.6573 4.99641 12.5398 5.11654C12.4814 5.17624 12.4027 5.23083 12.3198 5.24493C12.1305 5.27717 11.9247 5.26279 11.7327 5.26286L10.8322 5.26297L7.41024 5.26462C7.39076 5.56274 7.40226 5.86653 7.40156 6.16536C7.40117 6.32715 7.38436 6.50106 7.39727 6.66127C7.39888 6.68117 7.40377 6.6985 7.41193 6.71668C7.41404 6.72146 7.41639 6.7261 7.41857 6.73081C7.47201 6.84595 7.54468 6.95416 7.61 7.063L7.93312 7.60181L8.98401 9.3534C9.05573 9.47261 9.33202 9.89126 9.35034 9.99859C9.29563 10.0888 9.19621 10.1694 9.1214 10.2444L8.74572 10.6205L8.24408 11.1221C8.14834 11.2177 8.05458 11.3205 7.9514 11.4079C7.88436 11.3655 7.82807 11.3002 7.77224 11.2442L7.4982 10.9689C7.35909 10.8289 7.18949 10.6216 6.97965 10.6006C6.90336 10.593 6.7981 10.5904 6.72557 10.6152C6.47143 10.7022 6.08386 11.2036 5.85102 11.4002L5.84188 11.4078C5.72668 11.3351 5.53831 11.1189 5.43418 11.0145C5.09682 10.6762 4.76533 10.3238 4.41373 10.0006C4.41134 9.95186 5.77902 7.6988 5.91919 7.46551C6.00965 7.31497 6.3577 6.78421 6.37345 6.65477C6.38723 6.54178 6.37387 6.41518 6.37295 6.30053L6.37302 5.62174L6.37313 2.20139L6.37299 1.08434C6.37299 0.8751 6.36631 0.663044 6.37714 0.454107C6.3803 0.393244 6.3873 0.332523 6.41577 0.277641C6.48725 0.139843 6.62671 0.0465659 6.77103 0Z" fill="#36C99F"/>
<path d="M14.7058 17.9999C14.7161 17.8932 14.7466 17.7917 14.7661 17.6867C14.7975 17.5183 14.7992 17.3006 14.7582 17.1346C14.6682 16.7705 14.4283 16.4168 14.2365 16.0955L13.7384 15.2648L12.3115 12.8655L11.8889 12.1584C11.8085 12.0252 11.7222 11.8934 11.6476 11.7569C11.6326 11.7297 11.6156 11.6987 11.6158 11.6666C11.616 11.6287 11.6354 11.5899 11.6532 11.5575C11.6902 11.4899 11.7389 11.4285 11.7775 11.3618C11.9371 11.0865 12.1016 10.8141 12.2654 10.5411L12.5974 9.98742C12.6646 9.87552 12.7358 9.7222 12.8286 9.63164C12.9206 9.54203 13.0913 9.48462 13.2182 9.48511C13.3408 9.48557 13.4911 9.53197 13.5797 9.61853C13.5779 9.63769 13.5749 9.63681 13.586 9.6539C13.6235 9.71124 13.6518 9.77666 13.6852 9.8366C13.7767 10.0008 13.8692 10.1661 13.9703 10.3245C13.9788 10.3379 13.9783 10.35 13.9804 10.3653C13.9903 10.4383 14.0687 10.4754 14.0963 10.5591C14.1239 10.6428 14.1833 10.7055 14.2265 10.781L14.4918 11.2494C14.5155 11.2919 14.5323 11.3391 14.5565 11.3805C14.5899 11.4376 14.6356 11.4876 14.6677 11.5457C14.6819 11.5713 14.681 11.6004 14.6932 11.6259C14.7112 11.6636 14.7504 11.7032 14.7726 11.7417C14.7972 11.7842 14.8137 11.8304 14.838 11.8726C14.8588 11.9088 14.8851 11.9419 14.9073 11.9773C14.9688 12.0755 15.0265 12.1832 15.0824 12.2852C15.1273 12.3673 15.1455 12.442 15.2109 12.5123C15.2516 12.5561 15.2541 12.6144 15.2841 12.6637C15.315 12.7146 15.3517 12.7617 15.3823 12.8129C15.4087 12.8572 15.4276 12.9057 15.4537 12.9504C15.6213 13.2376 15.7947 13.5258 15.9525 13.8184C15.9717 13.854 15.9858 13.8923 16.0053 13.9276C16.0319 13.9759 16.0735 14.0152 16.1012 14.063C16.1325 14.1172 16.1438 14.1823 16.175 14.2367C16.2024 14.2847 16.242 14.3254 16.2703 14.3729C16.3367 14.4848 16.391 14.6072 16.4551 14.7203C16.4881 14.7784 16.536 14.8291 16.5678 14.8883C16.5757 14.903 16.578 14.9188 16.5812 14.9349C16.5946 15.002 16.6723 15.0675 16.7062 15.1294C16.7207 15.1559 16.7192 15.1863 16.7321 15.2125C16.7568 15.2626 16.8026 15.3105 16.8313 15.3616L17.1082 15.8497C17.1305 15.8898 17.1458 15.9339 17.169 15.9734C17.1969 16.0209 17.238 16.0591 17.2644 16.1078C17.294 16.1624 17.3065 16.2262 17.3381 16.2797C17.3655 16.3259 17.4034 16.3655 17.4303 16.412C17.45 16.4461 17.4636 16.4836 17.4827 16.5181L17.7739 17.034C17.8062 17.0909 17.8601 17.1474 17.8854 17.2057C17.909 17.2599 17.8968 17.3244 17.9185 17.3795L17.9471 17.3738C17.9668 17.393 17.9682 17.4324 17.9685 17.4587C17.97 17.5636 17.8975 17.6985 17.8371 17.7829C17.8056 17.8269 17.7658 17.865 17.7516 17.9186C17.6978 17.9451 17.632 17.966 17.5833 17.9999H14.7058Z" fill="#667F99"/>
<path d="M13.5797 9.61865C13.612 9.64488 13.6399 9.67322 13.6619 9.70869C13.7995 9.93014 13.9219 10.1639 14.0497 10.3912L14.6253 11.4022L16.5038 14.7052L17.4778 16.4168L17.7141 16.8327C17.8185 17.0134 17.9296 17.1924 18 17.39V17.5762C17.9297 17.7147 17.8934 17.8331 17.7516 17.9187C17.7658 17.8651 17.8056 17.827 17.8371 17.783C17.8975 17.6986 17.97 17.5637 17.9685 17.4588C17.9682 17.4326 17.9668 17.3931 17.9471 17.374L17.9185 17.3796C17.8968 17.3246 17.909 17.26 17.8854 17.2058C17.8601 17.1475 17.8062 17.0911 17.7739 17.0342L17.4827 16.5182C17.4636 16.4837 17.45 16.4462 17.4303 16.4121C17.4034 16.3656 17.3655 16.326 17.3381 16.2798C17.3065 16.2263 17.294 16.1626 17.2644 16.1079C17.238 16.0592 17.1969 16.021 17.169 15.9735C17.1458 15.934 17.1305 15.8899 17.1082 15.8498L16.8312 15.3617C16.8026 15.3106 16.7568 15.2627 16.7321 15.2126C16.7192 15.1865 16.7206 15.156 16.7062 15.1295C16.6723 15.0677 16.5946 15.0021 16.5812 14.9351C16.5779 14.919 16.5757 14.9031 16.5678 14.8884C16.536 14.8293 16.4881 14.7785 16.4551 14.7204C16.391 14.6073 16.3367 14.4849 16.2703 14.373C16.242 14.3255 16.2024 14.2848 16.1749 14.2369C16.1438 14.1825 16.1324 14.1173 16.1012 14.0631C16.0735 14.0153 16.0319 13.9761 16.0052 13.9277C15.9858 13.8924 15.9717 13.8541 15.9525 13.8186C15.7947 13.526 15.6213 13.2377 15.4537 12.9506C15.4276 12.9059 15.4087 12.8573 15.3823 12.813C15.3517 12.7619 15.315 12.7147 15.2841 12.6638C15.2541 12.6146 15.2516 12.5562 15.2109 12.5124C15.1455 12.4421 15.1273 12.3674 15.0824 12.2853C15.0265 12.1833 14.9688 12.0757 14.9072 11.9774C14.8851 11.942 14.8588 11.9089 14.838 11.8728C14.8137 11.8305 14.7972 11.7843 14.7726 11.7418C14.7504 11.7033 14.7112 11.6638 14.6932 11.626C14.681 11.6006 14.6819 11.5714 14.6677 11.5458C14.6356 11.4877 14.5899 11.4377 14.5565 11.3806C14.5323 11.3392 14.5155 11.292 14.4918 11.2495L14.2265 10.7811C14.1833 10.7056 14.1239 10.643 14.0963 10.5592C14.0687 10.4755 13.9903 10.4384 13.9804 10.3654C13.9783 10.3501 13.9788 10.338 13.9703 10.3246C13.8692 10.1662 13.7767 10.0009 13.6852 9.83673C13.6518 9.77679 13.6234 9.71136 13.586 9.65402C13.5749 9.63693 13.5779 9.63781 13.5797 9.61865Z" fill="#667F99"/>
<path d="M0 17.3622C0.0162541 17.3385 0.0257379 17.3114 0.0367439 17.2849C0.0408558 17.3523 0.0301288 17.4176 0.0294212 17.4851C0.0290398 17.5214 0.037941 17.5652 0.0351731 17.5999C0.0343048 17.6107 0.0287711 17.6203 0.0238582 17.6297L0 17.5882V17.3622Z" fill="#667F99"/>
</svg>
