<svg width="57" height="56" viewBox="0 0 57 56" fill="none" xmlns="http://www.w3.org/2000/svg">
<path d="M28.4326 28.0917C30.9305 28.0589 32.9821 30.0572 33.015 32.5552C33.0479 35.0531 31.0496 37.1047 28.5517 37.1376C26.0537 37.1706 24.002 35.1722 23.9692 32.6743C23.9363 30.1762 25.9346 28.1246 28.4326 28.0917Z" fill="#667F99"/>
<path d="M14.9118 24.1534C17.4001 23.9321 19.5967 25.7701 19.8177 28.2585C20.0387 30.7468 18.2007 32.9432 15.7122 33.164C13.2242 33.3849 11.0281 31.547 10.8071 29.0589C10.5861 26.5708 12.4237 24.3747 14.9118 24.1534Z" fill="#667F99"/>
<path d="M41.3285 24.1531C43.8208 23.9646 45.9937 25.8333 46.1802 28.3257C46.3667 30.8182 44.4962 32.9895 42.0036 33.174C39.5138 33.3583 37.3456 31.4904 37.1593 29.0008C36.973 26.5112 38.8391 24.3415 41.3285 24.1531Z" fill="#667F99"/>
<path d="M12.5449 16.2348C12.8013 16.208 13.0598 16.2615 13.2845 16.3879C13.5676 16.5443 13.7765 16.8075 13.8644 17.1187C13.9544 17.4455 13.9079 17.7948 13.7357 18.0867C13.6453 18.2372 13.5235 18.3624 13.3799 18.4626C13.0171 18.7157 12.5631 18.8929 12.167 19.0911C11.6267 19.3617 10.7691 19.8606 10.2069 20.006C9.91161 20.0218 9.63617 19.9715 9.38651 19.8071C9.10922 19.6245 8.90519 19.3508 8.84272 19.0207C8.77882 18.6862 8.85292 18.3401 9.04817 18.061C9.14281 17.9228 9.26128 17.8201 9.40099 17.7292C9.74873 17.5029 10.1665 17.3315 10.5381 17.1456C11.0336 16.8978 12.0327 16.3281 12.5449 16.2348Z" fill="#667F99"/>
<path d="M44.1765 16.2341C44.3573 16.2211 44.5266 16.239 44.699 16.2952C45.1045 16.4274 45.5077 16.6755 45.8908 16.8668C46.4145 17.1282 46.9586 17.3727 47.4678 17.6601C47.8007 17.848 48.031 18.0769 48.1333 18.4533C48.2183 18.7664 48.1705 19.1311 48.0029 19.4085C47.8 19.7445 47.4838 19.9079 47.1154 20.0032C46.925 20.0186 46.7488 20.0003 46.5672 19.9403C46.1762 19.811 45.6542 19.5046 45.2717 19.3137C44.7631 19.06 44.1506 18.7976 43.674 18.5012C43.3897 18.3242 43.1902 18.0697 43.1197 17.7375C43.0514 17.4161 43.1087 17.0479 43.2896 16.7718C43.5009 16.4492 43.809 16.3054 44.1765 16.2341Z" fill="#667F99"/>
<path d="M22.0491 7H23.2371C23.2427 7.00207 23.2483 7.00423 23.2539 7.00622C23.4498 7.07529 23.6722 7.09661 23.8757 7.14001C24.1524 7.19901 24.4404 7.29081 24.7009 7.4009C25.9884 7.94504 26.8004 8.91975 27.7623 9.88287C27.9954 10.1163 28.2369 10.403 28.5015 10.5985C29.7279 9.4767 30.6705 8.10859 32.234 7.42151C32.5278 7.29239 32.8417 7.1993 33.1552 7.13179C33.3392 7.09218 33.566 7.07446 33.7373 7H34.9137C35.1061 7.06837 35.3205 7.08212 35.5199 7.12608C35.8519 7.19923 36.1845 7.31361 36.4957 7.44975C37.8036 8.02432 38.8281 9.09708 39.3421 10.43C39.8522 11.7631 39.8125 13.2441 39.2316 14.5479C39.0112 15.039 38.7186 15.4943 38.3634 15.8988C37.8944 16.4334 37.3558 16.9267 36.8519 17.43L34.1572 20.1241L31.0391 23.2432C30.4923 23.791 29.9596 24.3689 29.3873 24.8888C29.234 25.0281 29.0754 25.1439 28.8786 25.2139C28.5868 25.3177 28.2674 25.2932 27.9893 25.1613C27.8443 25.0925 27.7155 24.9922 27.598 24.884C26.9839 24.3183 26.4062 23.6952 25.8156 23.1036L22.3725 19.66L19.9331 17.2222C19.471 16.7605 18.9725 16.3094 18.5534 15.8093C18.1321 15.3141 17.8061 14.7454 17.5916 14.1317C17.1194 12.7728 17.21 11.2815 17.8433 9.98985C18.4714 8.70887 19.5852 7.73189 20.9371 7.27615C21.1653 7.19886 21.3934 7.14772 21.6291 7.09945C21.7536 7.07394 21.8916 7.05744 22.0111 7.01423C22.0238 7.00963 22.0364 7.00474 22.0491 7Z" fill="#36C99F"/>
<path d="M46.3814 33.832C46.7537 33.9627 47.1369 34.1138 47.4839 34.3017C48.3392 34.7621 48.9874 35.5305 49.2971 36.4511C49.3833 36.7145 49.421 36.9913 49.4995 37.257V47.9941C49.2853 48.5066 49.1678 48.723 48.6229 48.9486C48.6017 48.9575 48.5802 48.9658 48.5589 48.9744C48.5277 48.987 48.5401 48.9809 48.5109 49H38.5715C38.668 48.6934 38.7371 48.3815 38.7621 48.0608C38.7962 47.6223 38.7802 47.1758 38.7798 46.7359L38.7797 44.6124L38.7802 42.534C38.7802 42.0257 38.7933 41.5131 38.7429 41.0067C38.6862 40.4348 38.552 39.8734 38.344 39.3377C37.6718 37.6093 36.4456 36.498 34.7712 35.7594C34.76 35.7182 34.767 35.7001 34.7804 35.6604C34.8186 35.5472 34.8847 35.442 34.931 35.3317C34.9897 35.1917 35.0272 35.0343 35.0993 34.9015C35.3577 34.4257 36.4671 34.0019 36.9845 33.8398C37.2417 34.0338 37.4827 34.2446 37.7485 34.4277C38.6343 35.0367 39.6507 35.4295 40.7159 35.5744C42.3234 35.8004 43.9593 35.4548 45.3381 34.598C45.7066 34.3686 46.0371 34.0948 46.3814 33.832Z" fill="#667F99"/>
<path d="M20.0114 33.8366C20.5295 33.9855 21.6392 34.4424 21.8979 34.9107C22.0288 35.1477 22.1526 35.4858 22.2437 35.7443C21.8903 35.9171 21.5346 36.0708 21.1982 36.2773C19.9676 37.0373 19.0383 38.1999 18.568 39.5676C18.4061 40.0386 18.3011 40.5274 18.2552 41.0233C18.2062 41.5566 18.218 42.0925 18.218 42.6275L18.2185 44.7439L18.2179 46.7905C18.2177 47.2102 18.2024 47.637 18.2353 48.0555C18.2609 48.3784 18.3314 48.6908 18.4262 49.0001H8.48569C8.06715 48.8137 7.83824 48.714 7.61764 48.2854C7.58045 48.2132 7.55686 48.1353 7.51845 48.0636L7.5 48.0297V37.17C7.50544 37.1596 7.51109 37.1493 7.51631 37.1387C7.6254 36.9189 7.65981 36.5264 7.766 36.2639C8.27218 35.0123 9.14196 34.3794 10.3677 33.9255C10.452 33.8943 10.5356 33.8657 10.6227 33.8434C10.9622 34.1077 11.2911 34.3771 11.6573 34.6047C13.0197 35.4456 14.6304 35.7909 16.2177 35.5822C17.296 35.4446 18.326 35.0523 19.2224 34.4374C19.494 34.2501 19.7374 34.0154 20.0114 33.8366Z" fill="#667F99"/>
<path d="M33.2065 37.7839C33.5459 37.9167 33.8918 38.0433 34.2169 38.2092C35.0031 38.6062 35.6283 39.2623 35.9869 40.0667C36.1448 40.4237 36.2581 40.8243 36.2942 41.2135C36.3296 41.5933 36.3166 41.9816 36.3167 42.3628L36.3173 44.1243V46.4875C36.3172 46.9071 36.3321 47.3326 36.3124 47.7516C36.3056 47.8974 36.2934 48.0683 36.2389 48.2043C36.098 48.5561 35.8317 48.7873 35.4871 48.9311C35.4345 48.9531 35.38 48.9709 35.331 49.0001H21.6574C21.2703 48.7961 20.8798 48.6349 20.738 48.1689C20.6897 48.01 20.6862 47.8005 20.6802 47.6345C20.6639 47.1811 20.6765 46.7229 20.6768 46.2692V43.8335L20.677 42.3083C20.6774 41.8943 20.6659 41.4698 20.7262 41.0593C20.8006 40.5559 20.9748 40.0724 21.2386 39.6372C21.8651 38.5862 22.6928 38.2047 23.7838 37.7896L23.8055 37.8037C23.9716 37.9132 24.1207 38.0474 24.2775 38.1696C24.4821 38.3272 24.6954 38.4731 24.9164 38.6067C26.4052 39.4969 28.1721 39.801 29.8728 39.4597C30.8062 39.2728 31.6905 38.8939 32.4697 38.3473C32.7218 38.1702 32.95 37.9505 33.2065 37.7839Z" fill="#667F99"/>
<path d="M46.6849 7H47.1983C47.2722 7.04396 47.3599 7.07015 47.4382 7.10698C47.6835 7.22244 47.909 7.40966 48.0402 7.64902C48.1929 7.92738 48.2128 8.30557 48.1173 8.60706C47.9923 9.00182 47.7027 9.22735 47.3498 9.41208C46.8958 9.64975 46.4295 9.86584 45.9718 10.0968C45.5981 10.2854 44.9878 10.6517 44.6078 10.7417C44.3874 10.7945 44.1569 10.7864 43.9408 10.7181C43.6312 10.6197 43.3539 10.3856 43.2097 10.094C43.0685 9.80842 43.0573 9.44617 43.1591 9.14535C43.2341 8.92161 43.3729 8.7247 43.5584 8.57885C43.8301 8.36181 44.1928 8.22934 44.5027 8.07401L46.6849 7Z" fill="#667F99"/>
<path d="M9.78123 7H10.3025C10.4414 7.09182 10.6405 7.15278 10.7944 7.22788L12.415 8.03483C12.719 8.18671 13.059 8.32644 13.3398 8.51667C13.4905 8.61877 13.6225 8.73553 13.7207 8.89102C13.8972 9.1707 13.9526 9.53291 13.8737 9.85354C13.7955 10.171 13.5639 10.4563 13.2836 10.6198C13.0027 10.7836 12.6732 10.8128 12.3621 10.7304C11.9481 10.6206 11.1726 10.1692 10.7418 9.95468C10.3079 9.73854 9.74022 9.50962 9.3547 9.2442C9.19266 9.13442 9.0588 8.98797 8.96398 8.81674C8.80197 8.52082 8.78371 8.14827 8.88451 7.82827C9.03218 7.35943 9.37938 7.20479 9.78123 7Z" fill="#667F99"/>
</svg>
